<?xml version="1.0" encoding="UTF-8"?>
<svg width="1400" height="360" viewBox="0 0 1400 360" xmlns="http://www.w3.org/2000/svg">
  <defs>
    <linearGradient id="bg" x1="0" y1="0" x2="1" y2="1">
      <stop offset="0%" stop-color="#050B1A"/>
      <stop offset="55%" stop-color="#071126"/>
      <stop offset="100%" stop-color="#05071A"/>
    </linearGradient>
    <linearGradient id="edge" x1="0" y1="0" x2="1" y2="0">
      <stop offset="0%" stop-color="#22D3EE"/>
      <stop offset="55%" stop-color="#60A5FA"/>
      <stop offset="100%" stop-color="#A78BFA"/>
    </linearGradient>
    <filter id="softGlow" x="-30%" y="-30%" width="160%" height="160%">
      <feGaussianBlur stdDeviation="6" result="blur"/>
      <feColorMatrix in="blur" type="matrix"
        values="1 0 0 0 0
                0 1 0 0 0
                0 0 1 0 0
                0 0 0 0.8 0" result="glow"/>
      <feMerge>
        <feMergeNode in="glow"/>
        <feMergeNode in="SourceGraphic"/>
      </feMerge>
    </filter>
    <style>
      .title{font:800 46px ui-sans-serif, system-ui, -apple-system, Segoe UI, Arial; fill:#E5E7EB; letter-spacing:0.4px}
      .sub{font:500 18px ui-sans-serif, system-ui, -apple-system, Segoe UI, Arial; fill:#9CA3AF}
      .pill{fill:#0B1735; stroke:url(#edge); stroke-width:2; rx:999; filter:url(#softGlow)}
      .pillTxt{font:650 14px ui-monospace, SFMono-Regular, Menlo, Consolas, monospace; fill:#A5B4FC}
      .grid{stroke:#101A33; stroke-width:1}
    </style>
  </defs>
  <rect width="1400" height="360" fill="url(#bg)"/>
  <!-- subtle grid -->
  <g opacity="0.35">
    <line class="grid" x1="0" y1="60" x2="1400" y2="60"/>
    <line class="grid" x1="0" y1="120" x2="1400" y2="120"/>
    <line class="grid" x1="0" y1="180" x2="1400" y2="180"/>
    <line class="grid" x1="0" y1="240" x2="1400" y2="240"/>
    <line class="grid" x1="0" y1="300" x2="1400" y2="300"/>
    <line class="grid" x1="140" y1="0" x2="140" y2="360"/>
    <line class="grid" x1="280" y1="0" x2="280" y2="360"/>
    <line class="grid" x1="420" y1="0" x2="420" y2="360"/>
    <line class="grid" x1="560" y1="0" x2="560" y2="360"/>
    <line class="grid" x1="700" y1="0" x2="700" y2="360"/>
    <line class="grid" x1="840" y1="0" x2="840" y2="360"/>
    <line class="grid" x1="980" y1="0" x2="980" y2="360"/>
    <line class="grid" x1="1120" y1="0" x2="1120" y2="360"/>
    <line class="grid" x1="1260" y1="0" x2="1260" y2="360"/>
  </g>

  <text x="70" y="145" class="title">SOC Monitoring Lab</text>
  <text x="70" y="185" class="sub">整合式 Monitoring × SIEM 架構原型｜事件關聯、告警生命週期、可維運與可交接</text>

  <g transform="translate(70,225)">
    <rect class="pill" x="0" y="0" width="520" height="46"/>
    <text x="22" y="29" class="pillTxt">Zabbix • Wazuh • Zeek • Graylog • Prometheus</text>
  </g>

  <g transform="translate(70,285)">
    <rect class="pill" x="0" y="0" width="420" height="46"/>
    <text x="22" y="29" class="pillTxt">Detection → Correlation → RCA → Trend</text>
  </g>
</svg>
